<svg xmlns="http://www.w3.org/2000/svg" viewBox="0 0 127.58 114.87"><defs><style>.cls-1{fill:#3f4751;}.cls-2{fill:#3256c1;}.cls-3{fill:#545b66;}.cls-4{fill:#94d4ff;}.cls-5{fill:#757d8c;}.cls-6{fill:#ffd400;}</style></defs><g id="Layer_2" data-name="Layer 2"><g id="_3" data-name="3"><g id="_680-Cap_Education_Headdress_Study" data-name="680-Cap, Education, Headdress, Study"><path class="cls-1" d="M113,89a3.05,3.05,0,0,1-3-3V48.84a3,3,0,0,1,6,0V86.21A3,3,0,0,1,113,89Z"/><path class="cls-2" d="M120.17,5.73a7.18,7.18,0,0,1,7.18,7.11,7.18,7.18,0,0,1-14.35,0A7.18,7.18,0,0,1,120.17,5.73Z"/><path class="cls-2" d="M8.8,71.76a5.74,5.74,0,1,1,0,11.47,5.74,5.74,0,1,1,0-11.47Z"/><path class="cls-3" d="M26.16,61.9,57.89,81.39a5.68,5.68,0,0,0,6,0L95.63,61.9V94a6.44,6.44,0,0,1-6.48,6.42H32.65A6.45,6.45,0,0,1,26.16,94Z"/><path class="cls-4" d="M124.57,28.66a3,3,0,1,1-3,3A3.23,3.23,0,0,1,124.57,28.66Z"/><path class="cls-4" d="M107.21,106.15a3,3,0,1,1-3,3A3.05,3.05,0,0,1,107.21,106.15Z"/><path class="cls-4" d="M84.05,0a3.05,3.05,0,0,1,3,3,3,3,0,0,1-6,0A3.22,3.22,0,0,1,84.05,0Z"/><path class="cls-4" d="M37.74,108.9a3,3,0,1,1-3,3A3.22,3.22,0,0,1,37.74,108.9Z"/><path class="cls-4" d="M32,0a3.05,3.05,0,0,1,3,3,3,3,0,0,1-6,0A3.23,3.23,0,0,1,32,0Z"/><path class="cls-4" d="M6,100.42a3,3,0,1,1,0,6,3,3,0,0,1-3-3A2.91,2.91,0,0,1,6,100.42Z"/><path class="cls-4" d="M3,17.2a3,3,0,1,1,0,6,3.05,3.05,0,0,1-3-3A3.21,3.21,0,0,1,3,17.2Z"/><path class="cls-5" d="M113.69,41.27a5.76,5.76,0,0,1,0,9.86c-.23.23-49.55,30.49-49.78,30.49a5.68,5.68,0,0,1-6,0S8.57,51.36,8.1,51.13a5.77,5.77,0,0,1,0-9.86L57.89,10.78a5.68,5.68,0,0,1,6,0Z"/><path class="cls-3" d="M55.11,23.39a3,3,0,1,1-3,3A3,3,0,0,1,55.11,23.39Z"/><path class="cls-3" d="M23.39,49.06a3.19,3.19,0,0,1-2.55-1.37,2.67,2.67,0,0,1,.93-3.9L44.92,29.35a2.73,2.73,0,0,1,3.94.91,2.68,2.68,0,0,1-.93,3.9L24.78,48.61A1.74,1.74,0,0,1,23.39,49.06Z"/><path class="cls-6" d="M113,86a5.73,5.73,0,1,1-5.79,5.73A5.71,5.71,0,0,1,113,86Z"/></g></g></g></svg>