<svg xmlns="http://www.w3.org/2000/svg" viewBox="0 0 58.17 53.8"><defs><style>.cls-1{fill:#bce4ff;}.cls-2{fill:#07cc66;}.cls-3{fill:#fff;}.cls-4{fill:#19ab5c;}.cls-5{fill:#d94556;}.cls-6{fill:#ffd5ab;}.cls-7{fill:#3256c1;}.cls-8{fill:#3f4751;}.cls-9{fill:#757d8c;}.cls-10{fill:#94d4ff;}</style></defs><g id="Layer_2" data-name="Layer 2"><g id="_1" data-name="1"><g id="_677-Blackboard_Lecture_Presentation" data-name="677-Blackboard, Lecture, Presentation"><path class="cls-1" d="M10.2,3H49.39V38.3H10.2Z"/><path class="cls-2" d="M39.39,8.9a6.15,6.15,0,1,0,6.06,6.3A6.12,6.12,0,0,0,39.39,8.9Z"/><path class="cls-3" d="M37.87,15a1.27,1.27,0,1,1,1.22,1.3A1.32,1.32,0,0,1,37.87,15Z"/><path class="cls-4" d="M39.39,8.9a6.15,6.15,0,1,1-.3,12.3l.1-4.9a1.25,1.25,0,1,0,.1-2.5Z"/><path class="cls-2" d="M39.39,8.9l-.1,4.9a1.25,1.25,0,1,0-.1,2.5l-.1,4.9A6.18,6.18,0,0,1,33,14.9,6.06,6.06,0,0,1,39.39,8.9Z"/><path class="cls-3" d="M27.77,19.4A7.51,7.51,0,0,1,28.48,30l-3.84-3.3a2.49,2.49,0,0,0-.2-3.5,2.55,2.55,0,0,0-3.53.2,2.49,2.49,0,0,0,.2,3.5l-3.34,3.8a7.51,7.51,0,0,1-.7-10.6A7.68,7.68,0,0,1,27.77,19.4Z"/><path class="cls-5" d="M24.64,26.7,28.48,30a7.69,7.69,0,0,1-10.71.7l3.34-3.8A2.55,2.55,0,0,0,24.64,26.7Z"/><path class="cls-6" d="M24.44,23.2a2.49,2.49,0,0,1,.2,3.5,2.55,2.55,0,0,1-3.53.2,2.49,2.49,0,0,1-.2-3.5A2.46,2.46,0,0,1,24.44,23.2Z"/><path class="cls-7" d="M55.65,13.8a2.5,2.5,0,1,1-2.53,2.5A2.49,2.49,0,0,1,55.65,13.8Z"/><path class="cls-7" d="M1.92,28.8a1.91,1.91,0,0,1,1.92,1.9,1.85,1.85,0,0,1-1.92,1.9,1.9,1.9,0,1,1,0-3.8Z"/><polygon class="cls-8" points="27.87 42.5 18.99 53.8 13.94 53.8 18.99 42.5 27.87 42.5"/><path class="cls-9" d="M50.6,37.5a2.5,2.5,0,1,1,0,5H8.89a2.5,2.5,0,1,1,0-5Z"/><polygon class="cls-8" points="40.5 42.5 45.55 53.8 40.5 53.8 31.61 42.5 40.5 42.5"/><path class="cls-9" d="M51.81,1.9a1.91,1.91,0,0,1-1.92,1.9H9.49A1.91,1.91,0,0,1,7.57,1.9,1.85,1.85,0,0,1,9.49,0h40.4A1.91,1.91,0,0,1,51.81,1.9Z"/><path class="cls-10" d="M56.46,5.4a1.27,1.27,0,0,1,.4.9,1.09,1.09,0,0,1-.4.9,1.31,1.31,0,0,1-.91.4,1.33,1.33,0,0,1-1.32-1.3,1.1,1.1,0,0,1,.41-.9,1.27,1.27,0,0,1,.91-.4A1.31,1.31,0,0,1,56.46,5.4Z"/><path class="cls-10" d="M55.24,26.7a1.24,1.24,0,0,1,.41.9,1,1,0,0,1-.41.9,1.27,1.27,0,0,1-.9.4A1.33,1.33,0,0,1,53,27.6a1.07,1.07,0,0,1,.41-.9,1.27,1.27,0,0,1,.91-.4A1,1,0,0,1,55.24,26.7Z"/><path class="cls-10" d="M50.19,47.9a1.24,1.24,0,0,1,.41.9,1.07,1.07,0,0,1-.41.9,1.27,1.27,0,0,1-.9.4A1.33,1.33,0,0,1,48,48.8a1.07,1.07,0,0,1,.41-.9,1.22,1.22,0,0,1,1.81,0Z"/><path class="cls-10" d="M33.73,31.7a1.27,1.27,0,0,1,.41.9,1,1,0,0,1-.41.9,1.27,1.27,0,0,1-.91.4,1.33,1.33,0,0,1-1.31-1.3,1.09,1.09,0,0,1,.4-.9,1.31,1.31,0,0,1,.91-.4A1,1,0,0,1,33.73,31.7Z"/><path class="cls-10" d="M28.68,7.9a1.27,1.27,0,0,1,.41.9,1,1,0,0,1-.41.9,1.27,1.27,0,0,1-.91.4,1.33,1.33,0,0,1-1.31-1.3,1.09,1.09,0,0,1,.4-.9,1.31,1.31,0,0,1,.91-.4A1.27,1.27,0,0,1,28.68,7.9Z"/><path class="cls-10" d="M9.8,46.7a1.27,1.27,0,0,1,.4.9,1.09,1.09,0,0,1-.4.9,1.31,1.31,0,0,1-.91.4,1.33,1.33,0,0,1-1.32-1.3A1.1,1.1,0,0,1,8,46.7a1.27,1.27,0,0,1,.91-.4A1,1,0,0,1,9.8,46.7Z"/><path class="cls-10" d="M4.75,15.4a1.27,1.27,0,0,1,.4.9,1,1,0,0,1-.4.9,1.29,1.29,0,0,1-.91.4,1.33,1.33,0,0,1-1.32-1.3,1.1,1.1,0,0,1,.41-.9,1.27,1.27,0,0,1,.91-.4A1.29,1.29,0,0,1,4.75,15.4Z"/><path class="cls-10" d="M25.35,8.8A1.33,1.33,0,0,0,24,7.5H10.2V10H24.14A1.22,1.22,0,0,0,25.35,8.8Z"/><path class="cls-10" d="M36.66,31.3a1.3,1.3,0,1,0,0,2.6H49.29V31.4H36.66Z"/></g></g></g></svg>