<svg xmlns="http://www.w3.org/2000/svg" viewBox="0 0 58.17 58.8"><defs><style>.cls-1{fill:#33383f;}.cls-2{fill:#bce4ff;}.cls-3{fill:#3256c1;}.cls-4{fill:#3f4751;}.cls-5{fill:#757d8c;}.cls-6{fill:#313a52;}.cls-7{fill:#94d4ff;}</style></defs><g id="Layer_2" data-name="Layer 2"><g id="_1" data-name="1"><g id="_690-Abc_Board_Learning" data-name="690-Abc, Board, Learning"><path class="cls-1" d="M31.61,58.8a1.33,1.33,0,0,1-1.31-1.3V46.3a1.31,1.31,0,0,1,2.62,0V57.6A1.24,1.24,0,0,1,31.61,58.8Z"/><path class="cls-1" d="M27.87,58.8a1.33,1.33,0,0,1-1.31-1.3V46.3a1.32,1.32,0,0,1,2.63,0V57.6A1.39,1.39,0,0,1,27.87,58.8Z"/><path class="cls-2" d="M49.28,3.8V41.3H10.1V3.8Z"/><path class="cls-3" d="M1.92,32.6a1.91,1.91,0,0,1,1.92,1.9,1.85,1.85,0,0,1-1.92,1.9,1.9,1.9,0,1,1,0-3.8Z"/><path class="cls-3" d="M55.65,17.6a2.5,2.5,0,1,1-2.53,2.5A2.49,2.49,0,0,1,55.65,17.6Z"/><polygon class="cls-4" points="40.5 46.3 45.55 57.6 40.5 57.6 31.61 46.3 40.5 46.3"/><polygon class="cls-4" points="27.87 46.3 18.99 57.6 13.94 57.6 18.99 46.3 27.87 46.3"/><path class="cls-5" d="M50.6,41.3a2.5,2.5,0,1,1,0,5H8.89a2.5,2.5,0,1,1,0-5Z"/><rect class="cls-6" x="36.66" y="37.6" width="6.36" height="3.8"/><path class="cls-6" d="M30.6,3.8V7.6H26.76V1.9A1.91,1.91,0,0,1,28.68,0,1.85,1.85,0,0,1,30.6,1.9Z"/><path class="cls-7" d="M55.24,5.5a1.24,1.24,0,0,1,.41.9,1.07,1.07,0,0,1-.41.9,1.27,1.27,0,0,1-.91.4A1.33,1.33,0,0,1,53,6.4a1.07,1.07,0,0,1,.41-.9,1.27,1.27,0,0,1,.9-.4A1,1,0,0,1,55.24,5.5Z"/><path class="cls-7" d="M55.24,30.5a1.24,1.24,0,0,1,.41.9,1,1,0,0,1-.41.9,1.27,1.27,0,0,1-.91.4A1.33,1.33,0,0,1,53,31.4a1.07,1.07,0,0,1,.41-.9,1.27,1.27,0,0,1,.9-.4A1,1,0,0,1,55.24,30.5Z"/><path class="cls-7" d="M50.19,51.7a1.24,1.24,0,0,1,.41.9,1.07,1.07,0,0,1-.41.9,1.27,1.27,0,0,1-.91.4A1.33,1.33,0,0,1,48,52.6a1.07,1.07,0,0,1,.41-.9,1.22,1.22,0,0,1,1.81,0Z"/><path class="cls-3" d="M41.91,25.4l1.82,1.1c-.61,1.5-2.52,2.3-4.14,2.3a4.14,4.14,0,0,1-1.92-.4,5.27,5.27,0,0,1-2.52-2.8,5.41,5.41,0,0,1-.31-1.8,4.75,4.75,0,0,1,1.32-3.3,4.13,4.13,0,0,1,1.51-1.1,4.73,4.73,0,0,1,2.12-.4,4.8,4.8,0,0,1,2.42.6,3.6,3.6,0,0,1,1.52,1.5l-1.82,1.1a.92.92,0,0,0-.4-.6A2.31,2.31,0,0,0,40.3,21a2.51,2.51,0,0,0-1.72.2,2.9,2.9,0,0,0-1.31,1.6c-.61,2.2.8,4.4,3,3.9a3.5,3.5,0,0,0,1.21-.6A4.35,4.35,0,0,1,41.91,25.4Z"/><path class="cls-3" d="M33.53,24.5a2.77,2.77,0,0,1,.5,1.6,2,2,0,0,1-.3,1.1,3.52,3.52,0,0,1-3,1.4H26V18.9h5.45a3,3,0,0,1,.91.2,2.68,2.68,0,0,1,1,3.6,2.21,2.21,0,0,1-1,.9A3.48,3.48,0,0,1,33.53,24.5Zm-1.82,1.2a1.14,1.14,0,0,0-.3-.8.93.93,0,0,0-.71-.3H28.08v2.1H30.6a.93.93,0,0,0,.71-.3A.75.75,0,0,0,31.71,25.7Zm-.4-3.9a.76.76,0,0,0-.31-.7.86.86,0,0,0-.6-.3H28.08v2H30.3a1.85,1.85,0,0,0,.7-.2A1,1,0,0,0,31.31,21.8Z"/><path class="cls-3" d="M21.31,18.9l3.53,9.7H22.52l-.71-2.2h-3l-.7,2.2H15.75l3.54-9.7Zm.2,6L20.4,21.5l-1.21,3.4Z"/><path class="cls-7" d="M9.8,50.5a1.27,1.27,0,0,1,.4.9,1.09,1.09,0,0,1-.4.9,1.31,1.31,0,0,1-.91.4,1.33,1.33,0,0,1-1.32-1.3A1.1,1.1,0,0,1,8,50.5a1.27,1.27,0,0,1,.91-.4A1,1,0,0,1,9.8,50.5Z"/><path class="cls-7" d="M4.75,19.2a1.27,1.27,0,0,1,.4.9,1,1,0,0,1-.4.9,1.31,1.31,0,0,1-.91.4,1.33,1.33,0,0,1-1.32-1.3,1.1,1.1,0,0,1,.41-.9,1.27,1.27,0,0,1,.91-.4A1.31,1.31,0,0,1,4.75,19.2Z"/><path class="cls-7" d="M36.76,6.3H29.19c-.2,0-.31,0-.41.1a.6.6,0,0,0-.4-.1H20.7a1.3,1.3,0,1,0,0,2.6h7.58c.2,0,.3,0,.4-.1a.63.63,0,0,0,.41.1h7.57A1.33,1.33,0,0,0,38,7.6,1.24,1.24,0,0,0,36.76,6.3Z"/></g></g></g></svg>