<svg xmlns="http://www.w3.org/2000/svg" viewBox="0 0 181.06 178.66"><defs><style>.cls-1{fill:#94d4ff;}.cls-2{fill:#bce4ff;}.cls-3{fill:#3256c1;}.cls-4{fill:#d94556;}.cls-5{fill:#3f4751;}.cls-6{fill:#4a78ff;}</style></defs><g id="Layer_2" data-name="Layer 2"><g id="_7" data-name="7"><g id="_681-Document_Email_Page_Sheet" data-name="681-Document, Email, Page, Sheet"><polygon class="cls-1" points="156.86 30.81 156.86 178.66 38.98 178.66 38.98 163.09 141.14 163.09 141.14 30.81 156.86 30.81"/><path class="cls-2" d="M141.77,15.56V163.4H23.89V15.56Z"/><path class="cls-3" d="M175.09,159.67a5.92,5.92,0,1,1,0,11.83,5.92,5.92,0,1,1,0-11.83Z"/><path class="cls-3" d="M6,128.55a5.94,5.94,0,0,1,6,5.91,5.76,5.76,0,0,1-6,5.91,5.91,5.91,0,1,1,0-11.82Z"/><path class="cls-1" d="M173.2,70a4,4,0,1,1-4.09,4A4.15,4.15,0,0,1,173.2,70Z"/><path class="cls-1" d="M169.11,23.34A4.05,4.05,0,1,1,165,27.39,4.36,4.36,0,0,1,169.11,23.34Z"/><path class="cls-3" d="M126.05,93.37a4.05,4.05,0,1,1-4.09,4A4.15,4.15,0,0,1,126.05,93.37Z"/><path class="cls-3" d="M126.05,105.2a4,4,0,1,1-4.09,4A4.15,4.15,0,0,1,126.05,105.2Z"/><path class="cls-3" d="M126.05,116.72a4,4,0,1,1-4.09,4A4.14,4.14,0,0,1,126.05,116.72Z"/><path class="cls-3" d="M126.05,128.55a4,4,0,1,1-4.09,4A4.14,4.14,0,0,1,126.05,128.55Z"/><path class="cls-3" d="M126.05,140.06a4,4,0,1,1-4.09,4.05A4.15,4.15,0,0,1,126.05,140.06Z"/><path class="cls-4" d="M106.56,56.34v2.18c0,.93-.31,1.86-.31,3.11-.32.93-.63,2.18-1,3.42a9.48,9.48,0,0,1-1.57,3.11,6.76,6.76,0,0,1-2.83,2.18,8.64,8.64,0,0,1-4.08.94A7.07,7.07,0,0,1,94,71a6.87,6.87,0,0,1-1.89-1.25c-.31-.31-.94-.93-.94-1.56a3.37,3.37,0,0,1-.31-1.55,14.79,14.79,0,0,1-10.69,4,10.09,10.09,0,0,1-7.23-2.49,8.63,8.63,0,0,1-2.52-6.22,9,9,0,0,1,1-4.36,7.33,7.33,0,0,1,2.51-2.8,10.73,10.73,0,0,1,3.77-1.56A18.82,18.82,0,0,1,82,52.6c1.57,0,3.15,0,4.09.62a10.86,10.86,0,0,1,2.51.94,8.61,8.61,0,0,0-.31-2.8,14.72,14.72,0,0,0-.94-2.18,5,5,0,0,0-2.2-1.25,9.88,9.88,0,0,0-3.46-.62,19.31,19.31,0,0,0-4.72.62,34.68,34.68,0,0,0-3.45,1.87l-1.89-5.29a18.28,18.28,0,0,1,11-3.11c2.83,0,5,.31,6.6,1.24a8.44,8.44,0,0,1,3.46,3.11A10.06,10.06,0,0,1,94,50.11a22.15,22.15,0,0,1,.31,4.36c0,6.22,0,8.4.32,10.27a6.86,6.86,0,0,0,.94,1.56,2.4,2.4,0,0,0,1.57.62,2.87,2.87,0,0,0,2.52-1.25,12.52,12.52,0,0,0,1.57-2.8,13.28,13.28,0,0,0,.63-3.42c0-1.25.31-2.18.31-3.11,0-8.1-4.09-14.94-11.63-18.06a22.33,22.33,0,0,0-16.35,0A17.18,17.18,0,0,0,64.13,48.55a21.2,21.2,0,0,0-1.26,7.79A19.77,19.77,0,0,0,67.9,70a13.61,13.61,0,0,0,6,4,20.84,20.84,0,0,0,7.86,1.55A25.21,25.21,0,0,0,87.07,75a24.14,24.14,0,0,0,4.4-1.56l1.26,3.12a25.71,25.71,0,0,1-19.8.93,28.51,28.51,0,0,1-7.23-4.67,21,21,0,0,1-5-7.47,24,24,0,0,1-1.89-9.65,24.48,24.48,0,0,1,1.89-10A20.55,20.55,0,0,1,66,38.59c4.4-4,10.37-5.91,16.66-5.91a27.36,27.36,0,0,1,8.8,1.56A22.8,22.8,0,0,1,99,38.59a19.13,19.13,0,0,1,5.34,7.48A21.52,21.52,0,0,1,106.56,56.34ZM88.64,60.69V58.2a19.92,19.92,0,0,0-2.83-.62A15.46,15.46,0,0,0,82,57.27a8.45,8.45,0,0,0-4.4.93,4,4,0,0,0-1.57,3.43,3.57,3.57,0,0,0,1.26,3.11c1.57,1.25,3.77,1.25,6,.62a21.35,21.35,0,0,0,2.51-.93A5.65,5.65,0,0,0,88,62.87,5.74,5.74,0,0,0,88.64,60.69Z"/><path class="cls-1" d="M12,93.37a4.05,4.05,0,1,1-4.09,4A4.14,4.14,0,0,1,12,93.37Z"/><path class="cls-1" d="M12,167.45a4,4,0,1,1-4.09,4.05C8.17,169,9.74,167.45,12,167.45Z"/><path class="cls-1" d="M4.09,38.91a4,4,0,1,1,0,8.09A4.15,4.15,0,0,1,0,43,4.36,4.36,0,0,1,4.09,38.91Z"/><path class="cls-5" d="M49.35,0a9.75,9.75,0,0,0-9.74,9.65v5.91h7.86V9.65a2,2,0,0,1,1.88-1.87c.63,0,1.26.31,1.26.62a1.66,1.66,0,0,1,.63,1.25V34.86a4.09,4.09,0,0,0,8.17,0V9.65A10.24,10.24,0,0,0,49.35,0Z"/><path class="cls-6" d="M59.1,101.16H39.29a4.05,4.05,0,1,1,0-8.1H59.1a4.05,4.05,0,1,1,0,8.1Z"/><path class="cls-6" d="M59.1,113H39.29a4,4,0,1,1,0-8.09H59.1a4,4,0,1,1,0,8.09Z"/><path class="cls-6" d="M59.1,124.5H39.29a4,4,0,1,1,0-8.09H59.1a4,4,0,1,1,0,8.09Z"/><path class="cls-6" d="M59.1,136.33H39.29a4.05,4.05,0,1,1,0-8.1H59.1a4.05,4.05,0,1,1,0,8.1Z"/><path class="cls-6" d="M59.1,147.84H39.29a4,4,0,1,1,0-8.09H59.1a4.14,4.14,0,0,1,4.08,4.05A3.93,3.93,0,0,1,59.1,147.84Z"/><path class="cls-3" d="M114.11,101.16H71a4.05,4.05,0,1,1,0-8.1h43.38a4.15,4.15,0,0,1,4.09,4A4.43,4.43,0,0,1,114.11,101.16Z"/><path class="cls-3" d="M114.11,113H71a4,4,0,1,1,0-8.09h43.38a4.15,4.15,0,0,1,4.09,4A4.42,4.42,0,0,1,114.11,113Z"/><path class="cls-3" d="M114.11,124.5H71a4,4,0,1,1,0-8.09h43.38a4.14,4.14,0,0,1,4.09,4A4.43,4.43,0,0,1,114.11,124.5Z"/><path class="cls-3" d="M114.11,136.33H71a4.05,4.05,0,1,1,0-8.1h43.38a4.15,4.15,0,0,1,4.09,4.05A4.43,4.43,0,0,1,114.11,136.33Z"/><path class="cls-3" d="M114.11,147.84H71a4,4,0,1,1,0-8.09h43.38a4.15,4.15,0,0,1,4.09,4.05A4.41,4.41,0,0,1,114.11,147.84Z"/></g></g></g></svg>